<svg xmlns="http://www.w3.org/2000/svg" width="1024" height="1024" viewBox="0 0 1024 1024" version="1.1"><path d="M 651.098 274.149 C 649.602 278.439, 649.697 278.656, 651.938 276.072 C 653.003 274.843, 653.630 273.199, 653.331 272.419 C 652.563 270.420, 652.337 270.595, 651.098 274.149 M 348.711 316.434 C 343.656 326.821, 338.687 341.689, 340 342.500 C 340.459 342.784, 343.009 343.221, 345.667 343.473 L 350.500 343.931 345.350 342.905 L 340.199 341.879 342.673 333.825 C 344.033 329.395, 347.142 321.701, 349.581 316.727 C 352.020 311.752, 353.858 307.524, 353.664 307.331 C 353.471 307.138, 351.242 311.234, 348.711 316.434 M 635.644 341.631 C 632.974 342.451, 630.968 343.301, 631.187 343.520 C 631.406 343.739, 634.266 343.078, 637.542 342.050 C 640.819 341.023, 642.825 340.173, 642 340.161 C 641.175 340.149, 638.315 340.810, 635.644 341.631 M 356.500 344.923 C 362.937 346.260, 370.952 347.072, 367.827 346.071 C 366.357 345.600, 362.307 344.962, 358.827 344.653 C 354.027 344.228, 353.465 344.293, 356.500 344.923 M 643 346.991 C 641.625 347.450, 639.209 348.111, 637.632 348.461 C 636.055 348.811, 634.942 349.276, 635.160 349.493 C 635.378 349.711, 637.344 349.435, 639.528 348.879 C 641.713 348.324, 646.200 347.510, 649.500 347.071 L 655.500 346.274 650.500 346.216 C 647.750 346.184, 644.375 346.533, 643 346.991 M 656.937 348.315 C 658.860 353.409, 658.350 354.740, 654.250 355.326 C 643.522 356.860, 628.704 360.845, 633.316 360.956 C 634.314 360.980, 635.944 360.565, 636.936 360.034 C 638.563 359.163, 641.905 358.430, 654.500 356.181 C 658.370 355.490, 658.496 355.342, 658.380 351.663 C 658.314 349.571, 657.723 347.329, 657.067 346.680 C 656.144 345.767, 656.115 346.137, 656.937 348.315 M 338.033 349.461 C 337.366 350.264, 336.648 352.852, 336.438 355.211 L 336.055 359.500 336.994 355.143 C 337.510 352.747, 338.452 350.160, 339.089 349.393 C 339.725 348.627, 340.020 348, 339.745 348 C 339.470 348, 338.699 348.657, 338.033 349.461 M 348.500 350.582 C 352.900 351.321, 358.750 352.152, 361.500 352.429 L 366.500 352.933 362 352.020 C 352.558 350.105, 345.408 349.016, 343 349.125 C 341.625 349.188, 344.100 349.844, 348.500 350.582 M 622.500 352.682 C 619.578 353.728, 618.029 353.826, 616.750 353.048 C 615.611 352.355, 615 352.335, 615 352.992 C 615 353.546, 615.563 354.020, 616.250 354.045 C 616.938 354.070, 616.150 354.752, 614.500 355.560 C 611.161 357.196, 611.829 357.070, 620.500 354.430 C 626.950 352.466, 627.557 352.201, 626.917 351.626 C 626.688 351.420, 624.700 351.895, 622.500 352.682 M 376.500 354.974 C 379.539 355.774, 388.683 356.305, 387.917 355.637 C 387.688 355.437, 384.350 355.028, 380.500 354.729 C 376.254 354.398, 374.680 354.495, 376.500 354.974 M 606.802 358.531 C 606.510 358.824, 605.287 359.252, 604.084 359.484 C 601.947 359.895, 598.099 363.639, 598.033 365.372 C 598.015 365.852, 599.013 365.550, 600.250 364.702 C 601.487 363.855, 602.376 362.641, 602.225 362.006 C 602.074 361.371, 602.312 361.075, 602.753 361.347 C 603.195 361.620, 604.668 360.989, 606.028 359.944 C 607.388 358.899, 608.237 358.034, 607.917 358.022 C 607.596 358.010, 607.094 358.239, 606.802 358.531 M 342.500 360.057 C 344.700 360.512, 347.850 360.854, 349.500 360.817 C 351.750 360.767, 351.374 360.549, 348 359.949 C 341.965 358.875, 337.235 358.968, 342.500 360.057 M 357 362.063 C 367.163 364.318, 381.752 366.983, 385.500 367.270 C 388.918 367.531, 389.488 367.902, 389.417 369.821 C 389.359 371.403, 389.647 371.753, 390.395 371.005 C 392.302 369.098, 389.625 366.549, 385.399 366.249 C 383.255 366.096, 377.225 365.109, 372 364.055 C 366.775 363.001, 360.250 361.897, 357.500 361.602 L 352.500 361.064 357 362.063 M 649.112 362.059 C 646.698 362.545, 644.448 363.244, 644.112 363.612 C 643.775 363.980, 644.625 364.018, 646 363.697 C 647.375 363.375, 650.862 362.804, 653.750 362.427 L 659 361.742 659 366.371 C 659 370.079, 658.652 371.018, 657.250 371.088 C 644.638 371.725, 633.080 373.061, 632.534 373.945 C 632.266 374.378, 633.949 374.384, 636.273 373.957 C 638.598 373.530, 644.505 372.938, 649.400 372.640 C 654.296 372.343, 658.712 371.688, 659.215 371.185 C 659.717 370.683, 659.987 368.298, 659.814 365.886 C 659.521 361.792, 659.300 361.489, 656.500 361.337 C 654.850 361.248, 651.525 361.572, 649.112 362.059 M 707 363.684 C 707 364.698, 715.990 367.344, 716.773 366.560 C 717.051 366.283, 716.070 365.597, 714.595 365.036 C 709.969 363.277, 707 362.749, 707 363.684 M 335.669 366.727 C 335.321 367.289, 336.616 367.590, 338.788 367.452 C 340.829 367.323, 342.950 367.489, 343.499 367.822 C 344.049 368.154, 345.849 368.361, 347.499 368.281 L 350.500 368.135 347.500 368.886 C 345.850 369.299, 344.035 369.295, 343.466 368.876 C 342.898 368.457, 341.773 368.528, 340.966 369.034 C 340.160 369.540, 338.712 369.709, 337.750 369.410 C 336.788 369.110, 336 369.346, 336 369.933 C 336 370.665, 344.072 370.953, 361.750 370.850 C 384.865 370.715, 386.323 370.614, 376 369.861 C 369.675 369.400, 361.350 368.582, 357.500 368.043 C 344.636 366.242, 336.280 365.739, 335.669 366.727 M 609.500 367.408 C 607.850 368.139, 603.688 370.820, 600.250 373.366 C 594.392 377.705, 592.597 380, 595.059 380 C 595.641 380, 595.853 379.571, 595.529 379.047 C 594.883 378.002, 608.527 368, 610.598 368 C 611.304 368, 612.160 367.550, 612.500 367 C 613.265 365.763, 613.189 365.773, 609.500 367.408 M 617 368.322 C 611.870 370.443, 605.666 373.786, 609 372.632 C 611.820 371.656, 623.499 366.762, 623.917 366.380 C 624.972 365.417, 622.022 366.245, 617 368.322 M 624.500 374.523 C 621.750 375.287, 619.087 375.932, 618.583 375.956 C 618.079 375.980, 617.903 376.236, 618.191 376.524 C 618.740 377.074, 629.925 374.408, 630.818 373.515 C 631.594 372.740, 630.020 372.991, 624.500 374.523 M 374.750 374.723 C 376.538 374.945, 379.462 374.945, 381.250 374.723 C 383.038 374.502, 381.575 374.320, 378 374.320 C 374.425 374.320, 372.962 374.502, 374.750 374.723 M 657.397 374.659 C 659.155 375.164, 659.256 376.017, 658.769 386.352 C 658.358 395.061, 658.443 396.297, 659.156 392 C 659.658 388.975, 659.941 383.805, 659.785 380.510 C 659.540 375.363, 659.219 374.492, 657.500 374.317 C 655.675 374.133, 655.666 374.163, 657.397 374.659 M 344.863 376.011 C 340.663 376.413, 336.726 377.051, 336.113 377.430 C 334.828 378.225, 334.634 385.875, 335.851 387.793 C 336.308 388.514, 336.471 386.667, 336.219 383.622 L 335.765 378.158 340.133 377.615 C 342.535 377.316, 348.100 376.669, 352.500 376.177 C 356.900 375.685, 358.700 375.282, 356.500 375.281 C 354.300 375.280, 349.064 375.609, 344.863 376.011 M 337.133 398.500 C 337.078 399.600, 338.127 403.425, 339.464 407 C 340.802 410.575, 341.919 412.954, 341.948 412.288 C 341.977 411.621, 341.133 408.696, 340.074 405.788 C 339.015 402.879, 337.942 399.600, 337.690 398.500 L 337.232 396.500 337.133 398.500 M 655.581 406.632 C 654.569 410.959, 652.883 416.696, 651.834 419.380 C 650.785 422.064, 650.108 424.441, 650.329 424.663 C 651.390 425.723, 658.489 401.967, 657.763 399.788 C 657.575 399.225, 656.593 402.305, 655.581 406.632 M 645.283 434.896 C 642.963 439.628, 641.770 442.600, 642.630 441.500 C 644.595 438.989, 650.414 427.059, 649.889 426.618 C 649.675 426.438, 647.602 430.163, 645.283 434.896 M 636.492 450.250 C 634.406 453.688, 631.755 457.611, 630.600 458.970 C 628.947 460.914, 628.894 461.136, 630.351 460.013 C 632.739 458.174, 641.879 444, 640.677 444 C 640.461 444, 638.578 446.813, 636.492 450.250 M 360.645 452.750 C 364.884 459.484, 368.340 463.404, 372.500 466.197 C 374.150 467.304, 373.530 466.503, 371.122 464.416 C 368.715 462.329, 364.780 457.557, 362.379 453.811 C 359.978 450.065, 357.791 447, 357.519 447 C 357.247 447, 358.654 449.587, 360.645 452.750 M 753.500 557.947 C 734.855 560.929, 715.734 571.412, 703.822 585.184 C 694.883 595.518, 687.174 609.282, 686.002 617 C 684.595 626.264, 683.854 629.449, 682.812 630.716 C 681.254 632.610, 682.174 660.305, 683.862 662.336 C 684.611 663.237, 684.979 664.611, 684.681 665.389 C 684.382 666.168, 684.420 667.086, 684.765 667.431 C 685.109 667.776, 685.483 668.683, 685.595 669.446 C 686.561 676.029, 688.670 682.525, 692.370 690.314 C 694.770 695.366, 697.077 700.600, 697.496 701.944 C 697.915 703.287, 699.717 706.463, 701.500 709 C 703.283 711.537, 705.074 714.713, 705.480 716.056 C 706.117 718.168, 708.995 725.969, 711.546 732.500 C 711.976 733.600, 712.422 734.837, 712.539 735.250 C 712.655 735.663, 712.840 736.112, 712.949 736.250 C 713.059 736.388, 713.343 737.547, 713.580 738.826 C 713.817 740.105, 714.543 742.130, 715.194 743.326 C 715.845 744.522, 716.471 746.175, 716.585 747 C 716.700 747.825, 717.317 751.425, 717.958 755 C 718.598 758.575, 719.107 762.625, 719.088 764 C 719.069 765.375, 719.042 767.579, 719.028 768.899 C 719.014 770.218, 719.426 771.809, 719.944 772.433 C 720.971 773.670, 720.870 775.817, 719.699 777.692 C 719.289 778.347, 719.346 781.382, 719.825 784.437 C 720.442 788.370, 720.349 790.501, 719.506 791.745 C 718.851 792.710, 718.238 796.824, 718.144 800.887 C 717.993 807.369, 717.606 808.771, 714.986 812.334 C 713.344 814.567, 712 817.404, 712 818.638 C 712 819.872, 711.605 821.126, 711.123 821.424 C 710.641 821.722, 709.754 823.918, 709.154 826.305 C 707.887 831.333, 702.402 839.097, 692.500 849.877 C 686.634 856.263, 681.792 860.531, 668.174 871.321 C 667.216 872.080, 666.595 871.973, 665.939 870.936 C 665.163 869.710, 665.028 869.723, 665.015 871.023 C 665.001 872.492, 659.449 876.163, 657.590 875.933 C 657.089 875.871, 656.279 876.536, 655.790 877.410 C 655.301 878.285, 654.294 879, 653.552 879 C 652.810 879, 649.697 880.318, 646.635 881.929 C 638.230 886.350, 613.092 889.519, 603.067 887.421 C 594.838 885.698, 582.712 881.408, 578.683 878.793 C 576.739 877.532, 572.395 874.771, 569.029 872.659 C 562.548 868.590, 559.558 864.716, 556.561 856.500 C 555.558 853.750, 554.346 851.072, 553.869 850.550 C 553.391 850.028, 553 848.879, 553 847.998 C 553 847.116, 550.577 843.944, 547.616 840.948 C 542.839 836.114, 538.834 833.565, 528.599 828.839 C 526.718 827.971, 521.791 827.505, 514.599 827.515 C 502.143 827.531, 495.126 829.441, 485 835.570 C 473.795 842.352, 468.650 849.471, 464.092 864.500 C 461.530 872.948, 461.379 875.571, 462.969 884 C 463.643 887.575, 464.433 891.850, 464.723 893.500 C 465.014 895.150, 465.600 896.950, 466.026 897.500 C 466.452 898.050, 467.969 901.385, 469.396 904.912 C 470.824 908.439, 472.640 912.039, 473.431 912.912 C 489.291 930.402, 489.973 931.036, 502.240 939.677 C 507.834 943.617, 517.736 948.691, 530 953.904 C 534.125 955.657, 538.625 957.695, 540 958.433 C 543.547 960.336, 560.222 965.942, 563.637 966.379 C 565.212 966.581, 569.200 967.442, 572.500 968.292 C 587.750 972.223, 623.587 972.824, 644 969.493 C 662.586 966.460, 693.973 955.423, 716.055 944.156 C 729.237 937.430, 742.043 928.848, 750.895 920.808 C 754.412 917.614, 757.787 914.992, 758.395 914.982 C 760.352 914.951, 783.307 891.805, 791.105 882 C 795.261 876.775, 799.428 871.869, 800.367 871.097 C 802.030 869.730, 811.912 855.526, 815.089 849.936 C 815.963 848.398, 817.521 845.871, 818.552 844.320 C 820.519 841.359, 822.980 836.962, 826.096 830.840 C 827.121 828.827, 828.306 827.027, 828.730 826.840 C 829.767 826.382, 832.182 821.062, 835.467 812 C 836.962 807.875, 838.784 803.150, 839.515 801.500 C 841.929 796.056, 848.725 772.996, 853.072 755.500 C 855.074 747.442, 855.674 744.435, 857.462 733.500 C 860.293 716.177, 861.269 676.311, 859.288 658.919 C 858.093 648.426, 853.670 630.193, 850.455 622.500 C 845.110 609.713, 833.039 589.487, 825.741 581.087 C 822.206 577.019, 809.277 568.247, 802.984 565.647 C 800.518 564.628, 797.636 563.339, 796.580 562.783 C 789.692 559.152, 763.997 556.268, 753.500 557.947 M 878.365 718.500 C 878.368 724, 878.536 726.122, 878.738 723.216 C 878.941 720.311, 878.939 715.811, 878.734 713.216 C 878.528 710.622, 878.363 713, 878.365 718.500 M 258.310 724.500 C 258.315 727.800, 258.502 729.029, 258.725 727.232 C 258.947 725.435, 258.943 722.735, 258.715 721.232 C 258.486 719.729, 258.304 721.200, 258.310 724.500" stroke="none" fill="#f36643" fill-rule="evenodd"/><path d="M 490.996 437.309 C 490.723 437.566, 486.225 438.080, 481 438.450 C 468.940 439.304, 466.844 439.540, 465 440.251 C 464.175 440.570, 461.295 441.094, 458.601 441.416 C 455.906 441.739, 453.206 442.371, 452.601 442.821 C 451.995 443.271, 449.475 444.252, 447 445 C 444.525 445.748, 442.050 446.671, 441.500 447.050 C 440.950 447.429, 438.925 448.250, 437 448.874 C 435.075 449.498, 430.575 451.570, 427 453.478 C 423.425 455.387, 417.555 458.494, 413.956 460.383 C 410.356 462.272, 403.381 467.191, 398.456 471.313 C 387.410 480.556, 371 496.460, 371 497.920 C 371 498.514, 370.510 499, 369.910 499 C 368.412 499, 365.261 502.833, 363.530 506.760 C 362.740 508.553, 360.385 511.861, 358.297 514.111 C 356.209 516.361, 353.769 519, 352.875 519.976 C 351.981 520.952, 350.696 521.935, 350.019 522.160 C 349.342 522.386, 348.717 523.969, 348.631 525.679 C 348.545 527.388, 347.089 530.972, 345.396 533.643 C 336.764 547.259, 328.659 562.909, 326.515 570.098 C 326.121 571.419, 324.773 574.750, 323.519 577.500 C 319.964 585.296, 318.455 589.026, 316.236 595.500 C 312.827 605.446, 307.232 627.014, 305.988 635 C 305.345 639.125, 304.453 643.439, 304.005 644.587 C 301.840 650.139, 298.925 669.126, 298.032 683.500 C 297.485 692.300, 296.527 704.225, 295.903 710 C 294.635 721.729, 295.210 757.646, 296.872 770.500 C 297.441 774.900, 298.385 782.775, 298.970 788 C 300.231 799.259, 306.024 824.050, 310.187 836 C 311.816 840.675, 313.573 845.913, 314.091 847.639 C 315.353 851.845, 325.956 872.116, 328.378 874.953 C 329.104 875.804, 331.536 879.875, 333.783 884 C 342.518 900.039, 374.273 927.821, 391.381 934.391 C 413.270 942.798, 419.747 944.120, 441.815 944.685 L 460.131 945.153 458.661 942.327 C 457.852 940.772, 456.248 938.419, 455.095 937.097 C 453.943 935.775, 453 934.142, 453 933.468 C 453 932.793, 451.831 929.600, 450.403 926.371 C 445.680 915.693, 445.425 914.576, 445.517 905 C 445.610 895.355, 447.699 886.575, 450.394 884.500 C 451.108 883.950, 452.411 882.150, 453.289 880.500 C 454.167 878.850, 456.273 875.925, 457.968 874 C 459.938 871.763, 461.999 867.432, 463.678 862 C 467.093 850.956, 468.297 848.666, 473.767 842.818 C 479.157 837.056, 487.028 832.130, 496 828.903 C 501.429 826.951, 504.493 826.560, 514.597 826.533 C 521.794 826.513, 527.667 826.970, 529.097 827.660 C 530.419 828.298, 533.675 829.819, 536.332 831.039 C 544.280 834.689, 552.041 842.681, 555.366 850.640 C 560.438 862.784, 563.445 868.304, 565.243 868.774 C 566.209 869.027, 567 869.568, 567 869.977 C 567 870.387, 569.813 872.198, 573.250 874.003 C 576.688 875.807, 580.175 877.837, 581 878.513 C 581.825 879.189, 584.975 880.623, 588 881.699 C 592.419 883.272, 596.625 883.707, 609.395 883.914 C 618.137 884.055, 626.124 884.331, 627.145 884.528 C 628.165 884.724, 629 884.481, 629 883.988 C 629 883.494, 630.688 882.837, 632.750 882.527 C 639.855 881.458, 646.505 879.716, 648.365 878.435 C 649.390 877.729, 650.870 877.397, 651.652 877.697 C 652.434 877.997, 653.845 877.603, 654.787 876.822 C 655.729 876.040, 658.233 874.523, 660.352 873.450 C 663.465 871.874, 664.918 870.062, 667.930 864 C 669.980 859.875, 672.142 855.600, 672.735 854.500 C 673.328 853.400, 674.348 850.475, 675.001 848 C 675.655 845.525, 677.051 842.567, 678.104 841.426 C 680.788 838.518, 684.811 823.927, 685.987 812.840 C 686.531 807.703, 687.493 801.700, 688.124 799.500 C 688.777 797.225, 689.314 787.736, 689.370 777.500 C 689.465 760.047, 689.336 758.847, 685.131 738 C 682.745 726.175, 680.366 715.825, 679.843 715 C 679.160 713.921, 678.999 714.413, 679.273 716.750 C 679.482 718.538, 679.313 720, 678.898 720 C 677.275 720, 675.109 708.953, 674.573 697.950 C 674.245 691.202, 673.282 684.134, 672.257 680.950 C 670.809 676.448, 670.504 671.759, 670.506 654 C 670.508 634.168, 670.685 631.996, 672.794 626 C 677.593 612.356, 677.601 612.654, 671.903 594.172 C 668.464 583.016, 664.321 572.451, 659.381 562.239 C 655.322 553.846, 652 546.786, 652 546.551 C 652 546.317, 648.850 540.862, 645 534.430 C 641.150 527.998, 638 522.522, 638 522.261 C 638 522.001, 635.145 518.123, 631.657 513.644 C 628.168 509.165, 624.728 504.375, 624.012 503 C 621.673 498.504, 603.785 479.931, 599.870 477.934 C 597.768 476.861, 595.025 474.578, 593.774 472.859 C 590.855 468.849, 577.542 460.141, 563.890 453.313 C 543.383 443.055, 527.593 439.015, 501.996 437.474 C 496.219 437.126, 491.269 437.052, 490.996 437.309" stroke="none" fill="#fefdfe" fill-rule="evenodd"/><path d="M 348.680 173.366 C 344.830 176.680, 344.657 177.286, 342.334 195.500 C 340.636 208.814, 341.563 241.593, 343.975 253.500 C 346.489 265.917, 348.181 272.581, 349.036 273.436 C 349.566 273.966, 350 275.419, 350 276.665 C 350 279.286, 352.190 286.045, 355.226 292.796 C 356.390 295.383, 357.367 298.175, 357.399 299 C 357.430 299.825, 354.650 306.304, 351.221 313.397 C 347.791 320.490, 343.910 329.795, 342.596 334.074 L 340.207 341.854 346.853 342.875 C 350.509 343.437, 355.750 344.164, 358.500 344.491 C 373.771 346.305, 392 351.513, 392 354.062 C 392 355.660, 382.850 356.246, 377.180 355.011 C 374.056 354.331, 369.475 353.608, 367 353.406 C 364.525 353.203, 360.025 352.572, 357 352.004 C 345.847 349.909, 339.479 349.202, 338.671 349.970 C 338.215 350.403, 337.609 352.500, 337.325 354.629 L 336.807 358.500 349.654 360.278 C 356.719 361.257, 366.766 362.951, 371.979 364.045 C 377.193 365.138, 383.161 366.099, 385.243 366.181 C 390.115 366.372, 391.764 368.204, 390.011 371.480 C 388.549 374.211, 386.414 374.580, 367 375.460 C 353.297 376.081, 337.023 377.644, 336.254 378.412 C 335.952 378.715, 336.172 383.583, 336.743 389.231 C 337.751 399.196, 340.355 409.172, 344.151 417.610 C 345.168 419.870, 346 422.807, 346 424.137 C 346 425.467, 346.744 427.617, 347.653 428.915 C 348.562 430.212, 350.869 434.250, 352.781 437.887 C 360.793 453.133, 370.218 464.740, 384.642 477.123 L 387.698 479.746 391.677 476.123 C 400.578 468.017, 405.538 464.307, 412.561 460.500 C 416.619 458.300, 422.316 455.101, 425.220 453.390 C 428.124 451.680, 431.625 449.936, 433 449.515 C 434.375 449.094, 439.709 447.009, 444.854 444.880 C 453.153 441.447, 459.581 439.792, 469.500 438.536 C 471.150 438.327, 474.750 437.845, 477.500 437.464 C 485.526 436.353, 511.123 436.671, 519.135 437.982 C 537.322 440.958, 549.939 445.151, 565.897 453.522 C 572.166 456.810, 578.016 459.950, 578.897 460.500 C 584.808 464.188, 590.688 468.783, 594.954 473.049 C 597.677 475.772, 600.546 478, 601.330 478 C 602.114 478, 603.293 478.649, 603.951 479.441 C 604.983 480.684, 605.655 480.601, 608.824 478.841 C 614.157 475.880, 619.027 472.042, 622.478 468.083 C 624.140 466.175, 626.967 463.014, 628.760 461.057 C 632.730 456.726, 643.918 438.549, 647.260 431 C 654.048 415.671, 657.832 400.759, 658.675 386.013 L 659.303 375.047 652.401 375.602 C 648.606 375.908, 639.029 376.797, 631.121 377.579 C 614.213 379.250, 615 379.220, 615 378.183 C 615 377.110, 624.742 374.061, 629.650 373.596 C 631.768 373.396, 636.200 372.925, 639.500 372.549 C 644.805 371.946, 652.011 371.353, 657.250 371.088 C 658.644 371.018, 659 370.085, 659 366.500 C 659 361.217, 658.658 361.129, 647.500 363.560 C 643.650 364.398, 637.125 365.260, 633 365.475 C 624.262 365.930, 614.550 369.506, 599 377.994 C 597.075 379.044, 595.163 379.926, 594.750 379.952 C 590.835 380.203, 603.194 370.190, 611 366.788 C 615.403 364.868, 633.063 359.773, 642 357.844 C 644.475 357.310, 647.882 356.451, 649.571 355.936 C 651.260 355.421, 653.848 355, 655.321 355 C 658.240 355, 658.768 353.151, 657.102 348.769 C 656.255 346.541, 655.871 346.445, 650.352 347.077 C 643.142 347.903, 627.680 351.125, 627 351.943 C 626.725 352.274, 622.340 353.856, 617.257 355.458 C 610.750 357.509, 606.647 359.501, 603.398 362.186 C 598.591 366.158, 597.997 366.495, 598.005 365.250 C 598.011 364.313, 604.673 357, 605.520 357 C 606.462 357, 608.535 354.703, 609.214 352.908 C 609.744 351.506, 612.332 350.027, 619.500 347.028 C 624.661 344.869, 642.113 339.846, 647.386 339.002 C 650.624 338.484, 653.426 337.907, 653.613 337.720 C 654.701 336.632, 648.982 320.935, 644.153 311.754 L 638.500 301.008 640.969 296.254 C 642.327 293.639, 644.208 290.375, 645.150 289 C 646.091 287.625, 648.103 282.900, 649.620 278.500 C 651.137 274.100, 652.767 270.234, 653.242 269.908 C 653.717 269.583, 653.990 268.908, 653.849 268.408 C 653.708 267.909, 654.114 265.250, 654.751 262.500 C 658.950 244.379, 659.476 239.382, 659.488 217.500 C 659.497 201.283, 659.065 193.134, 657.846 186.500 C 656.367 178.453, 654.551 172, 653.766 172 C 653.609 172, 648.086 173.751, 641.491 175.891 C 627.814 180.329, 613.342 186.166, 608.084 189.365 C 606.113 190.564, 603.150 192.188, 601.500 192.974 C 595.645 195.761, 576.033 210.270, 569.191 216.875 C 563.878 222.005, 562.228 222.799, 560.450 221.083 C 557.754 218.482, 548.992 214.957, 539.331 212.588 C 533.374 211.127, 526.925 209.493, 525 208.958 C 515.886 206.426, 477.827 207.447, 465.764 210.548 C 458.441 212.431, 445.126 216.537, 439.720 218.579 C 435.984 219.991, 435.902 219.969, 432.544 216.611 C 430.676 214.743, 427.427 211.939, 425.324 210.381 C 423.221 208.822, 419.250 205.690, 416.500 203.421 C 402.679 192.016, 381.145 179.803, 365.500 174.495 C 351.708 169.816, 352.724 169.884, 348.680 173.366 M 623.500 349.072 C 621.300 350.130, 620.625 350.716, 622 350.374 C 625.763 349.439, 630.711 347.164, 629 347.156 C 628.175 347.152, 625.700 348.014, 623.500 349.072 M 336.593 367.850 C 335.722 369.259, 338.886 370.132, 340.919 369.043 C 341.895 368.521, 343.100 368.444, 343.597 368.871 C 344.094 369.299, 345.850 369.308, 347.500 368.892 L 350.500 368.135 347.500 368.174 C 345.850 368.195, 344.275 368.123, 344 368.014 C 341.923 367.193, 337.065 367.085, 336.593 367.850 M 670.336 645 C 670.336 649.125, 670.513 650.813, 670.728 648.750 C 670.944 646.688, 670.944 643.313, 670.728 641.250 C 670.513 639.188, 670.336 640.875, 670.336 645 M 676.189 707.500 C 676.162 709.150, 676.489 711.393, 676.915 712.483 C 677.555 714.122, 677.815 713.800, 678.409 710.631 C 678.805 708.522, 678.875 706.542, 678.564 706.231 C 678.254 705.921, 677.947 706.754, 677.882 708.083 C 677.776 710.233, 677.679 710.168, 677 707.500 L 676.237 704.500 676.189 707.500 M 294.360 723 C 294.360 728.225, 294.529 730.362, 294.735 727.750 C 294.941 725.138, 294.941 720.862, 294.735 718.250 C 294.529 715.638, 294.360 717.775, 294.360 723" stroke="none" fill="#f48f3e" fill-rule="evenodd"/><path d="M 339.646 285.314 C 330.373 299.180, 320.853 318.900, 315.659 335 L 314.207 339.500 296.854 340.109 C 278.721 340.745, 272.503 341.351, 265 343.214 C 253.719 346.015, 256.973 346.503, 284.759 346.177 C 299.882 346, 312.650 346.250, 313.132 346.732 C 313.615 347.215, 313.725 350.334, 313.377 353.664 L 312.745 359.717 306.122 359.875 C 292.466 360.200, 278.073 361.964, 251.500 366.571 C 242.656 368.104, 241.043 368.434, 228 371.381 C 224.425 372.188, 220.037 373.144, 218.250 373.504 C 216.462 373.864, 215 374.582, 215 375.099 C 215 375.615, 216.012 375.803, 217.250 375.516 C 232.310 372.024, 260.461 369.277, 298.750 367.565 L 311 367.017 311 369.807 L 311 372.597 295.750 373.794 C 287.363 374.452, 271.275 376.390, 260 378.099 C 248.725 379.809, 234.775 381.798, 229 382.519 C 214.050 384.385, 206.418 386.223, 190.425 391.806 C 182.683 394.508, 174.583 397.185, 172.425 397.756 C 170.266 398.327, 169.418 398.840, 170.540 398.897 C 172.633 399.003, 175.790 398.209, 194 393.002 C 211.783 387.917, 229.926 384.023, 243 382.485 C 270.003 379.309, 286.029 378.004, 298.057 378.002 L 310.614 378 312.418 393.142 C 314.185 407.971, 318.156 424.533, 321.374 430.500 C 322.264 432.150, 325.442 438.788, 328.437 445.250 C 334.529 458.396, 342.425 469.874, 353.829 482.161 C 358.048 486.707, 363.106 492.154, 365.069 494.265 L 368.638 498.103 378.069 489.025 L 387.500 479.948 384.500 477.739 C 382.850 476.524, 377.619 471.698, 372.876 467.015 C 363.682 457.938, 357.964 449.812, 350.700 435.500 C 349.583 433.300, 348.070 430.791, 347.337 429.924 C 346.604 429.057, 345.583 426.357, 345.068 423.924 C 344.552 421.491, 342.674 415.675, 340.894 411 C 337.847 402.997, 336.183 393.879, 335.707 382.578 C 335.513 377.964, 335.675 377.610, 338.298 376.902 C 339.837 376.487, 350.412 375.649, 361.798 375.039 C 386.525 373.716, 388.743 373.385, 389.530 370.904 C 390.420 368.101, 389.518 367.348, 385.059 367.173 C 382.844 367.087, 378.887 366.531, 376.266 365.939 C 370.382 364.611, 352.246 361.416, 345.500 360.520 C 335.771 359.229, 335.711 359.191, 336.297 354.824 C 336.585 352.678, 337.304 350.338, 337.896 349.625 C 339.061 348.222, 341.135 348.439, 369.319 352.920 C 389.429 356.117, 395.597 354.990, 383 350.420 C 377.012 348.248, 366.892 346.374, 348.180 343.971 C 344.154 343.454, 340.479 342.796, 340.013 342.508 C 338.488 341.566, 344.016 326.033, 350.763 312.298 C 356.398 300.827, 357.200 298.550, 356.180 296.916 C 354.225 293.786, 350.300 282.735, 349.535 278.208 C 349.144 275.893, 348.461 274, 348.018 274 C 347.575 274, 343.807 279.091, 339.646 285.314 M 649.633 280.562 C 648.761 283.123, 646.236 288.359, 644.023 292.197 C 640.062 299.069, 639.144 302.681, 640.885 304.550 C 644.852 308.808, 655.881 335.766, 654.542 337.933 C 654.327 338.279, 652.716 338.672, 650.962 338.806 C 649.207 338.940, 643.210 340.430, 637.635 342.118 C 632.061 343.805, 625.925 345.641, 624 346.196 C 617.865 347.967, 610 352.097, 610 353.547 C 610 354.318, 608.650 355.647, 607 356.500 C 600.821 359.696, 604.307 359.593, 612.406 356.341 C 617.030 354.485, 624.117 352.100, 628.156 351.041 C 632.195 349.982, 638.109 348.414, 641.299 347.558 C 644.488 346.701, 649.337 346, 652.074 346 C 656.552 346, 657.151 346.268, 658.070 348.684 C 659.880 353.444, 658.939 355.424, 654.500 356.196 C 644.334 357.966, 639.329 359.029, 637.012 359.909 C 635.630 360.434, 631.350 361.591, 627.500 362.481 C 615.301 365.299, 609.755 367.670, 601.182 373.731 C 597.707 376.188, 595.041 378.374, 595.256 378.589 C 595.471 378.805, 600.339 376.564, 606.074 373.610 C 618.867 367.021, 624.204 365.335, 634.500 364.632 C 638.900 364.332, 643.850 363.612, 645.500 363.033 C 647.150 362.454, 650.975 361.872, 654 361.740 L 659.500 361.500 659.814 365.886 C 659.987 368.298, 659.731 370.669, 659.246 371.154 C 658.761 371.639, 655.020 372.250, 650.932 372.512 C 646.845 372.774, 641.700 373.219, 639.500 373.501 C 637.300 373.783, 633.250 374.240, 630.500 374.516 C 627.750 374.792, 623.475 375.698, 621 376.529 L 616.500 378.040 624 377.513 C 628.125 377.223, 637.575 376.364, 645 375.603 C 652.425 374.843, 658.837 374.422, 659.250 374.669 C 660.317 375.308, 660.165 386.333, 658.984 394 C 655.849 414.354, 650.439 428.959, 639.233 447.316 C 631.803 459.489, 618.644 474.055, 611.368 478.161 L 606.002 481.190 614.141 490.095 C 618.618 494.993, 622.881 499, 623.614 499 C 626.006 499, 638.904 487.051, 646.286 477.996 C 660.830 460.157, 667.620 448.560, 674.974 429 C 680.502 414.298, 684.779 388.697, 684.395 372.617 L 684.135 361.733 696.318 362.405 C 707.699 363.032, 714.128 364.190, 716.500 366.041 C 718.007 367.217, 729.385 370, 732.684 370 C 734.277 370, 738.262 370.706, 741.540 371.569 C 744.818 372.432, 750.425 373.285, 754 373.464 C 757.575 373.644, 763.650 374.059, 767.500 374.387 L 774.500 374.984 766.500 372.990 C 762.100 371.894, 754.900 370.338, 750.500 369.533 C 746.100 368.729, 737.100 366.229, 730.500 363.977 C 714.952 358.675, 700.659 355.067, 695 355.017 C 692.525 354.996, 688.862 354.707, 686.860 354.376 C 683.402 353.804, 683.169 353.517, 682.201 348.637 C 681.640 345.812, 681.343 343.335, 681.541 343.133 C 682.425 342.231, 716.412 348.004, 725.432 350.588 C 728.144 351.364, 731.519 351.976, 732.932 351.947 C 735.146 351.902, 734.880 351.588, 731 349.666 C 724.450 346.423, 698.572 338.223, 691 336.992 C 678.580 334.972, 679.132 335.240, 678.011 330.675 C 673.883 313.864, 666.169 297.546, 657.920 288.173 C 655.313 285.210, 654.015 282.711, 653.806 280.250 C 653.363 275.048, 651.464 275.190, 649.633 280.562 M 647.500 341.727 C 645.850 341.962, 644.072 342.569, 643.550 343.077 C 643.028 343.585, 641.003 344.067, 639.050 344.150 C 636.344 344.264, 636.108 344.394, 638.059 344.698 C 639.466 344.917, 642.616 344.591, 645.059 343.973 C 647.501 343.356, 650.279 342.856, 651.230 342.862 C 652.182 342.868, 653.221 342.451, 653.539 341.936 C 654.124 340.990, 652.958 340.950, 647.500 341.727 M 624.461 348.277 C 621.139 349.499, 617.543 351.029, 616.469 351.675 C 613.499 353.463, 615.414 354.352, 618.657 352.691 C 620.221 351.891, 624.087 350.425, 627.250 349.435 C 630.413 348.445, 633 347.267, 633 346.817 C 633 345.533, 630.968 345.881, 624.461 348.277 M 335.859 366.460 C 335.506 366.821, 335.446 367.990, 335.725 369.058 C 336.213 370.922, 337.263 370.994, 361.867 370.850 C 384.916 370.715, 386.341 370.615, 376 369.861 C 369.675 369.400, 361.350 368.582, 357.500 368.043 C 346.200 366.461, 336.549 365.755, 335.859 366.460 M 344.882 526.750 C 344.816 527.163, 344.816 527.837, 344.882 528.250 C 344.947 528.663, 343.976 529, 342.724 529 C 340.692 529, 329.547 539.793, 321.037 550 C 319.891 551.375, 316.890 554.975, 314.367 558 C 309.044 564.385, 300.282 577.508, 297.008 584 C 295.760 586.475, 293.888 589.708, 292.848 591.184 C 291.809 592.660, 290.340 595.585, 289.584 597.684 C 288.828 599.783, 286.556 605.100, 284.534 609.500 C 282.513 613.900, 280.449 618.400, 279.949 619.500 C 278.082 623.608, 274.073 635.703, 272.657 641.500 C 271.852 644.800, 270.304 649.975, 269.219 653 C 266.741 659.907, 263.466 677.989, 261.974 693 C 261.345 699.325, 260.448 705.850, 259.980 707.500 C 258.646 712.200, 257.894 750.303, 258.895 762.500 C 259.895 774.691, 262.437 794.782, 263.956 802.500 C 266.667 816.276, 267.462 819.308, 271.035 829.500 C 281.951 860.639, 283.924 864.667, 301.894 892.500 C 305.639 898.301, 331.550 923.871, 338.001 928.132 C 344.087 932.152, 361.190 941, 362.875 941 C 363.465 941, 367.222 942.297, 371.224 943.881 C 389.576 951.148, 408.237 953.912, 444 954.659 L 471.500 955.234 477 960.445 C 483.530 966.631, 494.979 974.388, 504 978.738 C 522.293 987.560, 541.619 994.632, 552.624 996.531 C 554.756 996.899, 560.618 998.269, 565.651 999.575 C 593.524 1006.808, 639.046 1006.501, 663.941 998.911 C 667.484 997.831, 673.530 996.291, 677.376 995.489 C 681.223 994.687, 687.843 992.224, 692.088 990.015 C 696.332 987.807, 700.637 985.997, 701.653 985.994 C 702.669 985.990, 704.850 985.279, 706.500 984.412 C 709.173 983.008, 712.203 981.687, 725 976.350 C 736.032 971.748, 745.158 966.137, 763.391 952.749 C 766.201 950.686, 769.469 948.576, 770.653 948.060 C 771.837 947.545, 773.087 946.668, 773.431 946.112 C 773.775 945.555, 778.206 941.645, 783.278 937.423 C 794.018 928.482, 809.879 912.550, 812.888 907.681 C 814.957 904.334, 821.724 896.383, 827.484 890.532 C 829.126 888.864, 830.975 886.600, 831.593 885.500 C 836.959 875.955, 843.722 863.116, 846.870 856.500 C 848.964 852.100, 851.886 846.733, 853.364 844.573 C 854.842 842.413, 856.324 839.488, 856.658 838.073 C 856.992 836.658, 858.172 833.475, 859.281 831 C 860.389 828.525, 861.867 824.475, 862.565 822 C 863.262 819.525, 865.681 811.686, 867.939 804.579 C 870.306 797.131, 873.176 784.849, 874.715 775.579 C 877.213 760.544, 877.390 757.389, 877.443 727 C 877.499 695.095, 876.166 676.089, 872.920 662.500 C 872.395 660.300, 871.466 656.025, 870.857 653 C 870.248 649.975, 868.923 645.893, 867.911 643.929 C 866.900 641.964, 865.882 638.317, 865.649 635.824 C 865.416 633.330, 864.725 630.355, 864.113 629.211 C 863.501 628.067, 863 626.215, 863 625.094 C 863 622.798, 858.597 612.379, 856.636 610.034 C 855.930 609.190, 853.884 605.147, 852.090 601.048 C 847.410 590.358, 836.797 574.769, 829.114 567.297 C 815.910 554.456, 799.652 545.565, 784.574 542.940 C 769.381 540.294, 748.374 542.972, 734.734 549.294 C 724.435 554.068, 703.695 572.555, 697.205 582.748 C 695.717 585.084, 694.050 586.852, 693.500 586.676 C 692.950 586.500, 689.575 581.813, 686 576.261 C 676.401 561.352, 668.804 551.857, 656.403 539.266 C 641.733 524.371, 640.123 524.281, 648.685 538.833 C 651.058 542.866, 653 546.341, 653 546.555 C 653 547.360, 658.422 558.598, 659.968 561 C 665.225 569.162, 677 604.311, 677 611.841 C 677 614.244, 675.836 620.027, 674.413 624.692 C 669.764 639.933, 669.544 668.190, 673.958 682.993 C 674.531 684.915, 675 688.033, 675 689.922 C 675 691.812, 675.455 694.740, 676.010 696.429 C 678.416 703.743, 683.478 725.635, 688.164 749 C 689.838 757.350, 690.307 763.698, 690.453 780 C 690.554 791.275, 691.019 801.360, 691.487 802.411 C 692.209 804.032, 692.009 804.236, 690.169 803.754 C 688.976 803.442, 687.944 803.595, 687.875 804.094 C 687.806 804.592, 687.662 805.337, 687.555 805.750 C 687.447 806.163, 687.022 810.100, 686.609 814.500 C 686.196 818.900, 684.990 825.294, 683.929 828.709 C 682.868 832.124, 682 835.577, 682 836.382 C 682 837.188, 680.947 839.119, 679.660 840.673 C 677.046 843.831, 675 849.089, 675 852.649 C 675 853.942, 674.622 855, 674.160 855 C 673.280 855, 666 869.276, 666 871.003 C 666 872.862, 667.485 871.975, 676.500 864.732 C 691.780 852.454, 707.112 834.410, 709.154 826.305 C 709.754 823.918, 710.641 821.722, 711.123 821.424 C 711.605 821.126, 712 819.872, 712 818.638 C 712 817.404, 713.344 814.567, 714.986 812.334 C 717.606 808.771, 717.993 807.369, 718.144 800.887 C 718.238 796.824, 718.851 792.710, 719.506 791.745 C 720.349 790.501, 720.442 788.370, 719.825 784.437 C 719.346 781.382, 719.289 778.347, 719.699 777.692 C 720.870 775.817, 720.971 773.670, 719.944 772.433 C 719.426 771.809, 719.014 770.218, 719.028 768.899 C 719.042 767.579, 719.069 765.375, 719.088 764 C 719.107 762.625, 718.598 758.575, 717.958 755 C 717.317 751.425, 716.700 747.825, 716.585 747 C 716.471 746.175, 715.845 744.522, 715.194 743.326 C 714.543 742.130, 713.817 740.105, 713.580 738.826 C 713.343 737.547, 713.059 736.388, 712.949 736.250 C 712.840 736.112, 712.655 735.663, 712.539 735.250 C 712.422 734.837, 711.976 733.600, 711.546 732.500 C 708.995 725.969, 706.117 718.168, 705.480 716.056 C 705.074 714.713, 703.283 711.537, 701.500 709 C 699.717 706.463, 697.915 703.287, 697.496 701.944 C 697.077 700.600, 694.770 695.366, 692.370 690.314 C 688.670 682.525, 686.561 676.029, 685.595 669.446 C 685.483 668.683, 685.109 667.776, 684.765 667.431 C 684.420 667.086, 684.382 666.168, 684.681 665.389 C 684.979 664.611, 684.611 663.237, 683.862 662.336 C 682.174 660.305, 681.254 632.610, 682.812 630.716 C 683.854 629.449, 684.595 626.264, 686.002 617 C 687.174 609.282, 694.883 595.518, 703.822 585.184 C 713.972 573.449, 727.018 565.399, 745 559.775 C 757.195 555.961, 786.926 557.694, 796.580 562.783 C 797.636 563.339, 800.518 564.628, 802.984 565.647 C 809.277 568.247, 822.206 577.019, 825.741 581.087 C 833.039 589.487, 845.110 609.713, 850.455 622.500 C 853.670 630.193, 858.093 648.426, 859.288 658.919 C 861.269 676.311, 860.293 716.177, 857.462 733.500 C 855.674 744.435, 855.074 747.442, 853.072 755.500 C 848.725 772.996, 841.929 796.056, 839.515 801.500 C 838.784 803.150, 836.962 807.875, 835.467 812 C 832.182 821.062, 829.767 826.382, 828.730 826.840 C 828.306 827.027, 827.121 828.827, 826.096 830.840 C 822.980 836.962, 820.519 841.359, 818.552 844.320 C 817.521 845.871, 815.963 848.398, 815.089 849.936 C 811.912 855.526, 802.030 869.730, 800.367 871.097 C 799.428 871.869, 795.261 876.775, 791.105 882 C 783.307 891.805, 760.352 914.951, 758.395 914.982 C 757.787 914.992, 754.412 917.614, 750.895 920.808 C 742.043 928.848, 729.237 937.430, 716.055 944.156 C 693.973 955.423, 662.586 966.460, 644 969.493 C 623.587 972.824, 587.750 972.223, 572.500 968.292 C 569.200 967.442, 565.212 966.581, 563.637 966.379 C 560.222 965.942, 543.547 960.336, 540 958.433 C 538.625 957.695, 534.125 955.657, 530 953.904 C 517.736 948.691, 507.834 943.617, 502.240 939.677 C 489.973 931.036, 489.291 930.402, 473.431 912.912 C 472.640 912.039, 470.824 908.439, 469.396 904.912 C 467.969 901.385, 466.452 898.050, 466.026 897.500 C 465.600 896.950, 465.014 895.150, 464.723 893.500 C 464.433 891.850, 463.645 887.575, 462.972 884 C 462.299 880.425, 461.824 875.925, 461.916 874 L 462.084 870.500 459.027 874 C 457.346 875.925, 455.096 879.132, 454.028 881.127 C 452.959 883.121, 451.447 884.998, 450.668 885.297 C 449.888 885.596, 449.006 887.114, 448.707 888.671 C 448.409 890.227, 447.681 893.300, 447.090 895.500 C 445.942 899.773, 446.551 915.111, 448.003 918.500 C 448.474 919.600, 450.062 923.425, 451.531 927 C 455.363 936.323, 455.765 937.119, 458.596 941 L 461.150 944.500 456.325 945.148 C 448.867 946.148, 424.301 945.067, 416.500 943.394 C 409.604 941.915, 402.808 939.775, 392 935.679 C 386.368 933.544, 371.429 923.902, 362.500 916.639 C 351.682 907.839, 336.963 891.649, 332.371 883.500 C 329.891 879.100, 326.102 872.575, 323.949 869 C 319.737 862.003, 315.104 852.633, 313.073 847 C 307.911 832.683, 305.781 825.637, 302.648 812.500 C 299.170 797.921, 296.705 783.286, 297.508 781.987 C 297.726 781.634, 297.303 777.556, 296.568 772.923 C 294.664 760.921, 293.657 720.649, 294.969 709 C 295.557 703.775, 296.484 692.750, 297.029 684.500 C 298.054 668.976, 300.280 653.448, 302.477 646.500 C 303.172 644.300, 304.283 639.125, 304.945 635 C 305.607 630.875, 307.731 621.875, 309.664 615 C 311.598 608.125, 313.360 601.600, 313.578 600.500 C 313.920 598.783, 316.067 592.835, 318.993 585.500 C 319.431 584.400, 320.917 581.025, 322.295 578 C 323.672 574.975, 325.121 571.419, 325.515 570.098 C 326.875 565.538, 334.025 550.753, 337.008 546.333 C 338.654 543.895, 340 541.518, 340 541.050 C 340 540.583, 341.574 537.862, 343.498 535.002 C 345.423 532.143, 346.746 529.398, 346.439 528.902 C 346.133 528.406, 346.385 528, 347 528 C 347.615 528, 347.840 527.550, 347.500 527 C 346.776 525.829, 345.053 525.665, 344.882 526.750" stroke="none" fill="#1e1e1e" fill-rule="evenodd"/><path d="M 476.461 437.795 C 477.099 438.432, 490.262 438.071, 490.936 437.397 C 491.202 437.132, 487.936 436.995, 483.679 437.094 C 479.423 437.193, 476.175 437.508, 476.461 437.795 M 501.083 437.364 C 501.313 437.565, 506 437.947, 511.500 438.213 C 517 438.479, 520.150 438.368, 518.500 437.967 C 515.445 437.223, 500.324 436.700, 501.083 437.364 M 459.500 440.078 C 454.912 440.853, 441.196 445.880, 443.500 445.943 C 444.770 445.977, 451.093 443.744, 452.776 442.667 C 453.477 442.218, 456.528 441.595, 459.555 441.282 C 462.582 440.970, 465.297 440.328, 465.588 439.857 C 465.880 439.386, 465.754 439.053, 465.309 439.117 C 464.864 439.181, 462.250 439.614, 459.500 440.078 M 524 439.678 C 525.375 439.902, 529.356 440.772, 532.846 441.613 C 536.336 442.454, 539.385 442.948, 539.621 442.712 C 540.278 442.055, 526.838 438.976, 524 439.134 L 521.500 439.272 524 439.678 M 542 443.891 C 542.825 444.484, 545.814 445.650, 548.642 446.481 C 551.470 447.313, 555.745 449.114, 558.142 450.484 C 560.539 451.855, 562.950 452.973, 563.500 452.970 C 565.349 452.959, 553.658 446.976, 549.055 445.578 C 546.550 444.817, 543.600 443.883, 542.500 443.503 C 540.889 442.946, 540.792 443.021, 542 443.891 M 426.500 452.526 C 424.300 453.881, 422.855 454.992, 423.290 454.995 C 424.400 455.002, 432 451.062, 432 450.480 C 432 449.523, 430.422 450.110, 426.500 452.526 M 404.287 465.266 C 401.970 467.045, 400.058 468.922, 400.037 469.437 C 400.017 469.952, 401.238 469.234, 402.750 467.840 C 404.262 466.447, 406.613 464.563, 407.973 463.653 C 409.332 462.744, 410.007 462.007, 409.473 462.016 C 408.938 462.025, 406.604 463.487, 404.287 465.266 M 601.108 478.250 C 601.351 478.387, 604.463 481.200, 608.025 484.500 L 614.500 490.500 608.531 484.250 C 605.249 480.813, 602.136 478, 601.615 478 C 601.093 478, 600.865 478.113, 601.108 478.250 M 381.966 485.750 L 376.500 491.500 382.250 486.034 C 387.592 480.956, 388.458 480, 387.716 480 C 387.560 480, 384.972 482.587, 381.966 485.750 M 618.545 496.044 C 621.270 499.093, 623.704 501.440, 623.952 501.258 C 624.201 501.077, 621.972 498.582, 618.998 495.714 L 613.590 490.500 618.545 496.044 M 634.910 517.644 C 636.609 519.923, 638.010 522.173, 638.022 522.644 C 638.034 523.115, 638.951 524.625, 640.060 526 L 642.075 528.500 640.063 524.493 C 638.957 522.289, 636.649 518.914, 634.935 516.993 L 631.819 513.500 634.910 517.644 M 675 704.396 C 675 709.331, 677.612 720, 678.821 720 C 680.440 720.001, 677.881 702.481, 675.985 700.585 C 675.338 699.938, 675 701.247, 675 704.396 M 516.718 826.941 C 526.533 827.710, 529.729 828.613, 538.500 833.092 L 542.500 835.136 540 833.089 C 538.625 831.963, 535.925 830.524, 534 829.890 C 532.075 829.257, 529.946 828.300, 529.269 827.763 C 528.592 827.226, 523.192 826.641, 517.269 826.464 L 506.500 826.141 516.718 826.941 M 488.037 832.271 C 484.482 834.047, 479 837.883, 475.853 840.796 C 470.441 845.807, 464.938 854.545, 465.052 857.946 C 465.081 858.801, 465.994 857.185, 467.082 854.357 C 470.665 845.039, 480.667 835.942, 492.693 831.060 C 495.337 829.987, 496.825 829.094, 496 829.075 C 495.175 829.057, 491.592 830.495, 488.037 832.271 M 553.030 846.629 C 552.968 848.947, 561.756 867.692, 563.389 868.727 C 563.878 869.037, 563.102 867.087, 561.664 864.395 C 560.227 861.703, 557.703 856.350, 556.055 852.500 C 554.408 848.650, 553.047 846.008, 553.030 846.629 M 660.260 873.413 C 657.928 874.692, 655.346 876.297, 654.523 876.981 C 653.699 877.665, 652.396 877.982, 651.628 877.687 C 650.859 877.392, 649.390 877.729, 648.365 878.435 C 646.505 879.716, 639.855 881.458, 632.750 882.527 C 630.688 882.837, 629 883.494, 629 883.988 C 629 884.481, 628.165 884.724, 627.145 884.528 C 626.124 884.331, 618.137 884.055, 609.395 883.914 C 596.625 883.707, 592.419 883.272, 588 881.699 C 584.975 880.623, 581.825 879.179, 581 878.491 C 580.175 877.804, 577.925 876.506, 576 875.606 C 574.075 874.707, 573.343 874.540, 574.374 875.236 C 581.467 880.020, 583.789 881.211, 589.775 883.134 C 593.474 884.322, 597.306 885.694, 598.292 886.182 C 600.826 887.437, 616.446 888.535, 615.766 887.410 C 615.453 886.893, 619.235 886.438, 624.533 886.355 C 633.817 886.211, 642.880 884.140, 646 881.449 C 646.825 880.738, 648.850 879.835, 650.500 879.444 C 652.150 879.052, 654.175 878.207, 655 877.566 C 655.825 876.925, 658.225 875.523, 660.333 874.450 C 662.441 873.378, 664.380 872.163, 664.642 871.750 C 665.313 870.693, 665.018 870.805, 660.260 873.413" stroke="none" fill="#f7ba9e" fill-rule="evenodd"/></svg>